<svg width="21" height="23" viewBox="0 0 21 23" fill="none" xmlns="http://www.w3.org/2000/svg">
<g clip-path="url(#clip0_109_1134)">
<path d="M8.11121 8.61223V17.2245M12.3803 8.61223V17.2245M7.2574 4.30611H2.13452V4.54534L2.33944 5.5501C3.33806 10.4465 3.84214 15.4533 3.84215 20.476V21.5306H16.6493V20.476C16.6493 15.4532 17.1531 10.4476 18.152 5.5501L18.357 4.54534V4.30611H13.2341M7.2574 4.30611V3.82765C7.2574 3.38783 7.33469 2.95231 7.48487 2.54597C7.63505 2.13963 7.85517 1.77041 8.13266 1.45941C8.41015 1.14841 8.73959 0.90171 9.10215 0.733397C9.46471 0.565084 9.8533 0.478455 10.2457 0.478455C10.6382 0.478455 11.0268 0.565084 11.3893 0.733397C11.7519 0.90171 12.0813 1.14841 12.3588 1.45941C12.6363 1.77041 12.8564 2.13963 13.0066 2.54597C13.1568 2.95231 13.2341 3.38783 13.2341 3.82765V4.30611M7.2574 4.30611H13.2341" stroke="#111111"/>
</g>
<defs>
<clipPath id="clip0_109_1134">
<rect width="20.4915" height="22.9659" fill="white"/>
</clipPath>
</defs>
</svg>
