<svg width="17" height="16" viewBox="0 0 17 16" fill="none" xmlns="http://www.w3.org/2000/svg">
<path d="M16.0605 14.7969L15.0254 8.82812H15.375C15.6562 8.82812 15.8828 8.60156 15.8828 8.32031V4.57031C15.8828 4.28906 15.6562 4.0625 15.375 4.0625H10.5703V0.507812C10.5703 0.226562 10.3438 0 10.0625 0H6.9375C6.65625 0 6.42969 0.226562 6.42969 0.507812V4.0625H1.625C1.34375 4.0625 1.11719 4.28906 1.11719 4.57031V8.32031C1.11719 8.60156 1.34375 8.82812 1.625 8.82812H1.97461L0.939453 14.7969C0.933594 14.8262 0.931641 14.8555 0.931641 14.8828C0.931641 15.1641 1.1582 15.3906 1.43945 15.3906H15.5605C15.5898 15.3906 15.6191 15.3887 15.6465 15.3828C15.9238 15.3359 16.1094 15.0723 16.0605 14.7969ZM2.48438 5.42969H7.79688V1.36719H9.20312V5.42969H14.5156V7.46094H2.48438V5.42969ZM11.625 14.0234V10.9766C11.625 10.8906 11.5547 10.8203 11.4688 10.8203H10.5312C10.4453 10.8203 10.375 10.8906 10.375 10.9766V14.0234H6.625V10.9766C6.625 10.8906 6.55469 10.8203 6.46875 10.8203H5.53125C5.44531 10.8203 5.375 10.8906 5.375 10.9766V14.0234H2.46094L3.3418 8.94531H13.6562L14.5371 14.0234H11.625Z" fill="black"/>
</svg>
