<svg width="30" height="30" viewBox="0 0 30 30" fill="none" xmlns="http://www.w3.org/2000/svg">
<path d="M14.1485 4.8012C14.5098 4.43508 15.0955 4.43508 15.4568 4.8012L26.1756 15.6629C26.5369 16.029 27.1227 16.029 27.484 15.6629C27.8453 15.2968 27.8453 14.7032 27.484 14.337L16.7652 3.47537C15.6813 2.37702 13.924 2.37703 12.8401 3.47537L2.12132 14.337C1.76002 14.7032 1.76002 15.2968 2.12132 15.6629C2.48262 16.029 3.0684 16.029 3.4297 15.6629L14.1485 4.8012Z" fill="#102C57"/>
<path d="M14.8026 6.78994L24.8672 16.9887C24.9039 17.0258 24.9413 17.0617 24.9795 17.0964V24.8437C24.9795 26.1381 23.9439 27.1875 22.6665 27.1875H18.5033C17.9923 27.1875 17.5781 26.7677 17.5781 26.25V20.625C17.5781 20.1072 17.1639 19.6875 16.653 19.6875H12.9523C12.4414 19.6875 12.0272 20.1072 12.0272 20.625V26.25C12.0272 26.7677 11.6129 27.1875 11.102 27.1875H6.93875C5.66136 27.1875 4.62583 26.1381 4.62583 24.8437V17.0964C4.66398 17.0617 4.70142 17.0258 4.73808 16.9887L14.8026 6.78994Z" fill="#102C57"/>
</svg>
