<svg width="33" height="34" viewBox="0 0 33 34" fill="none" xmlns="http://www.w3.org/2000/svg">
<path fill-rule="evenodd" clip-rule="evenodd" d="M16.7369 0.75C7.88033 0.75 0.700684 8.02537 0.700684 17C0.700684 25.9746 7.88033 33.25 16.7369 33.25C25.5934 33.25 32.7731 25.9746 32.7731 17C32.7731 8.02537 25.5934 0.75 16.7369 0.75ZM17.9704 12C17.9704 11.3096 17.4181 10.75 16.7369 10.75C16.0556 10.75 15.5033 11.3096 15.5033 12V15.75H11.8027C11.1214 15.75 10.5691 16.3096 10.5691 17C10.5691 17.6904 11.1214 18.25 11.8027 18.25H15.5033V22C15.5033 22.6904 16.0556 23.25 16.7369 23.25C17.4181 23.25 17.9704 22.6904 17.9704 22V18.25H21.6711C22.3524 18.25 22.9046 17.6904 22.9046 17C22.9046 16.3096 22.3524 15.75 21.6711 15.75H17.9704V12Z" fill="#102C57"/>
</svg>
