<svg width="30" height="30" viewBox="0 0 30 31" fill="none" xmlns="http://www.w3.org/2000/svg">
<path fill-rule="evenodd" clip-rule="evenodd" d="M9.37505 7.60003C9.37505 4.452 11.8934 1.90002 15 1.90002C18.1066 1.90002 20.625 4.452 20.625 7.60003C20.625 10.748 18.1066 13.3 15 13.3C11.8934 13.3 9.37505 10.748 9.37505 7.60003Z" fill="#102C57"/>
<path fill-rule="evenodd" clip-rule="evenodd" d="M4.6891 25.4668C4.78578 19.7797 9.36503 15.2 15 15.2C20.6352 15.2 25.2145 19.78 25.311 25.4672C25.3174 25.8444 25.103 26.1896 24.7646 26.3469C21.7909 27.7296 18.4832 28.5 15.0004 28.5C11.5174 28.5 8.20934 27.7295 5.23545 26.3466C4.89711 26.1892 4.68269 25.8439 4.6891 25.4668Z" fill="#102C57"/>
</svg>
